<?xml version="1.0" encoding="UTF-8"?>
<!DOCTYPE svg PUBLIC "-//W3C//DTD SVG 1.1//EN" "http://www.w3.org/Graphics/SVG/1.1/DTD/svg11.dtd">
<!-- Creator: CorelDRAW 2026 -->
<svg xmlns="http://www.w3.org/2000/svg" xml:space="preserve" width="4000px" height="480px" version="1.1" style="shape-rendering:geometricPrecision; text-rendering:geometricPrecision; image-rendering:optimizeQuality; fill-rule:evenodd; clip-rule:evenodd"
viewBox="0 0 3999.2 479.69"
 xmlns:xlink="http://www.w3.org/1999/xlink"
 xmlns:xodm="http://www.corel.com/coreldraw/odm/2003">
 <defs>
  <style type="text/css">
   <![CDATA[
    .fil0 {fill:#1F0BCC}
   ]]>
  </style>
 </defs>
 <g id="Слой_x0020_1">
  <metadata id="CorelCorpID_0Corel-Layer"/>
  <g id="_1776224825568">
   <path class="fil0" d="M2615.27 223.61c-1.36,-12.42 -1.81,-85.11 0.54,-94.84 25.73,-1.25 66.02,-1.8 91.38,0.03 61.9,4.46 62.16,88.15 1.12,94.49 -24.28,2.53 -67.27,1.1 -93.04,0.32zm-93.64 251.14c59.95,2.48 129.52,1.3 189.92,0.19 30.48,-0.56 51.13,-12.77 61.94,-33.54 5.82,-11.18 8.64,-25.14 6.07,-39.43 -2.03,-11.3 -8.94,-28.29 -16.99,-32.9 -15.9,15.59 -20.53,27.43 -58.93,28.55 -22.84,0.67 -66.84,2.12 -88.07,-0.61l0.03 -101.12c77.82,-5.4 162.16,-5.45 201.12,62.77 14.47,25.34 14.34,39.69 19.95,70.55 24.88,-2.04 61.09,-129.69 -31.58,-168.95 -3.75,-1.58 -9.1,-3.46 -13.05,-4.41 -7.81,-1.87 -10.41,-0.22 -16.27,-4.76 40.06,-12.42 66.4,-31.59 74.53,-74.84 9.55,-50.77 -18.2,-84.79 -48.33,-101.58 -37.12,-20.68 -82.04,-20.93 -129.81,-20.93 -47.66,0 -104.29,-2.78 -150.85,0.35 -3.4,12.01 -2.32,413.19 0.32,420.66z"/>
   <path class="fil0" d="M3913.47 243c5.54,-5.61 7.97,-10.17 13.67,-15.81 9.06,-8.96 62.92,-67.18 66.59,-76.05 -27.72,-0.6 -55.63,0.05 -83.38,-0.19 -19.44,-0.17 -20.24,1.05 -29.24,12.57l-58.3 65.44c-4.42,4.51 -5.57,7.41 -9.77,11.92l-27.71 29.42 -0.3 -243.01 -93.01 0.14 0.73 445.84 91.92 -0.15 0.46 -72.06c0,-22.02 4,-19.47 14.52,-32.15 3.52,-4.24 19.35,-21.51 22.28,-23.43 7,5.85 58.78,109.19 69.25,128.25l108.02 -0.18c-1.99,-14.87 -101.03,-171.18 -112.83,-200.24l27.1 -30.31z"/>
   <path class="fil0" d="M1360.68 473.25c2.24,-17.45 0.43,-124.86 0.64,-152.83 0.69,-89.12 85.73,-110.71 115.21,-60.14 22.1,37.92 11.5,179.24 9.67,214.73 17.85,-0.01 65.51,-0.79 92.3,-0.53 -0.12,-15.58 0.18,-134.33 0.18,-152.03 0,-52.08 4.2,-93.59 -21.44,-131.11 -18.83,-27.54 -58.3,-51.31 -109.39,-43.51 -57.2,8.74 -67.42,40.71 -86.01,64.16 -0.67,-63.24 4.48,-62.02 -16.22,-60.8 -19.73,0.33 -56.67,0.1 -75.7,0.18 -0.21,322.52 0.24,4.86 -1.24,322.58 15.37,1.18 79.41,2.09 92,-0.7z"/>
   <path class="fil0" d="M3076.55 236.98c43.78,-7.04 81.76,27.38 86.62,63.85 6.02,45.07 -26.42,81.62 -64.58,86.38 -102.3,12.76 -124.72,-133.74 -22.04,-150.23zm-155.87 93.33c11.32,86.79 86.08,155.61 185.66,145.35 83.3,-8.58 156.86,-84.62 146.35,-182.18 -8.91,-82.76 -88.21,-157.51 -184.59,-144.94 -93.13,12.14 -158.95,93.43 -147.42,181.77z"/>
   <path class="fil0" d="M3540.86 328.34c-5.42,21.38 -16.29,35.03 -30.97,45.65 -15.08,10.91 -39.17,17.59 -62.44,12.26 -35.45,-8.12 -69.65,-44.72 -57.95,-91.49 8.88,-35.53 46.6,-66.99 92.36,-56.75 34.81,7.79 70.45,45.12 59,90.33zm-95.45 -179.05c-128.61,19.13 -181.32,146.95 -124.61,245.79l26.55 34.42c34.47,30.74 79.49,53.56 139.96,45.8 82.53,-10.59 157.52,-88.05 142.99,-185.1 -12.35,-82.42 -89.26,-155.13 -184.89,-140.91z"/>
   <path class="fil0" d="M1118.28 287.43l-131.4 0.03c3.83,-37.65 27.64,-72.35 65.74,-73.16 43.75,-0.92 64.11,29.42 65.66,73.13zm68.67 135.25l-45.84 -48.28c-7.92,3.02 -16.26,14.12 -38.78,23.32 -51.25,20.95 -104.74,-3.91 -114.3,-61.01l219.35 -0.25c14.13,-191.03 -151.13,-214.89 -231.16,-170.9 -69.76,38.34 -95.44,127.19 -72.71,203.77 24.86,83.78 103.35,117.56 186.75,104.89 32.13,-4.88 85.25,-29.34 96.69,-51.54z"/>
   <path class="fil0" d="M2079.33 72.84c0.04,48.48 0,96.96 0,145.44 0,44.3 -3.38,97.06 6.95,137.85 17.99,71.06 80.08,123.56 165.29,123.56l23.58 0c47.1,0.01 94.78,-24.5 118.13,-46.99 28.09,-27.04 45.54,-72.26 48.34,-113.72 -7.03,1.39 -24.27,20.79 -31.05,26.82 -10.51,9.35 -21.15,17.11 -33.13,25.86 -75.99,55.52 -202.29,41.14 -202.27,-78.69l-0.17 -238.06c-22.26,-0.68 -72.92,-1.52 -95.6,0.9l-0.07 17.03z"/>
   <path class="fil0" d="M1627.9 152.71c-1.58,10.83 -1.37,40.31 -0.84,52.06 0.52,11.5 4.37,8.66 17.1,8.48 8.75,-0.12 17.52,-0.07 26.28,0.03 0.48,38.92 0.08,78.09 0.08,117.03 0,38.74 -4.13,72.3 13.22,102.15 15.57,26.75 38.44,41.31 70.87,44.84 39.77,4.33 63.72,-6.79 94.26,-19.22l-17.9 -65.65c-31.79,4.68 -68.32,31.28 -68.24,-48.36l0.61 -130.83 81.1 -1.15 -0.29 -60.77 -81.37 -0.61 -0.26 -76.24 -91.97 1.05 -0.33 75.71 -42.32 1.48z"/>
   <path class="fil0" d="M282.7 471.57c-60.39,-15.08 -90.81,-24.44 -134.14,-72.46 -77.61,-86 -65.35,-213.73 23.54,-279.14 48.98,-36.06 96.3,-50.53 156.54,-48 -18.95,-15.29 -80.91,-22.09 -111.3,-21.4 -105.02,2.36 -199.52,72.94 -215.35,186.59 -10.63,76.41 22.32,145.04 74.65,190.6 62.49,54.4 130.69,54.26 206.06,43.81z"/>
   <path class="fil0" d="M588.77 473.25c5.13,-35.8 -3.55,-137.24 1.55,-169.4 3.86,-24.34 16.79,-42.75 32.5,-53.48 25.42,-17.38 36.65,-11.62 67.74,-17.22l-0.17 -85.14c-40.25,-7.69 -91.28,40.03 -100.72,67.02l-0.44 -64.11 -92.64 0.84 0.54 321.97 91.64 -0.48z"/>
   <path class="fil0" d="M743.07 472.68c17.21,1.14 36.64,0.33 54.09,0.33 42.77,0 37,3.59 36.99,-14.95l0 -296.78c0,-13.55 -0.99,-11.46 -15.24,-11.24l-76.24 0.42c-3.23,28.7 -1.69,310.64 0.4,322.22z"/>
   <path class="fil0" d="M230.93 131.71c11.63,2.38 24.72,1.59 52.95,14.25 72.38,32.45 110.51,139.57 39.94,213.85 -28.07,27.32 -56.7,32.23 -92.45,37.52 16.64,11.54 52.87,13.77 76.05,11.05 25.23,-2.96 47.07,-11.96 64.76,-23.51 133.16,-86.96 27.62,-315.62 -141.25,-253.16z"/>
   <path class="fil0" d="M2346.97 317.53c38.04,-7.38 86.88,-50.44 94,-86.53 3.21,-16.25 2.01,-150.86 1.38,-176.34l-94.51 0.61 -0.87 262.26z"/>
   <path class="fil0" d="M776.32 1.74c-15.8,3.77 -24.25,8.94 -32.19,20.03 -23.88,33.35 -1.4,94.1 56.29,81.66 66.82,-14.41 44.17,-118 -24.1,-101.69z"/>
  </g>
 </g>
</svg>
